<svg xmlns="http://www.w3.org/2000/svg" width="1100" height="674" viewBox="0 0 1100 674" font-family="Helvetica,Arial,sans-serif">
<rect width="100%" height="100%" fill="white"/>
<text x="550.0" y="16" font-size="13" font-weight="bold" text-anchor="middle">PRISMA 2020 flow — "social media bots" literature (2016-2026)</text>
<defs><marker id="arrow" markerWidth="8" markerHeight="8" refX="6" refY="4" orient="auto"><path d="M0,0 L8,4 L0,8 z" fill="#333"/></marker></defs>
<rect x="20" y="26" width="330" height="78" fill="#eef4fb" stroke="#333" stroke-width="1.3" rx="4"/>
<text x="185.0" y="50" font-size="11.5" text-anchor="middle">Keyword search (OpenAlex)</text>
<text x="185.0" y="69" font-size="11.5" text-anchor="middle">"social media bot(s)", "social bot(s)"</text>
<text x="185.0" y="88" font-size="11.5" text-anchor="middle" font-weight="bold">n = 9,358</text>
<rect x="370" y="26" width="330" height="78" fill="#eef4fb" stroke="#333" stroke-width="1.3" rx="4"/>
<text x="535.0" y="50" font-size="11.5" text-anchor="middle">Depth-1 forward/backward snowball</text>
<text x="535.0" y="69" font-size="11.5" text-anchor="middle">7 seed papers, direct references + citations</text>
<text x="535.0" y="88" font-size="11.5" text-anchor="middle" font-weight="bold">n = 8,029</text>
<rect x="720" y="26" width="330" height="78" fill="#eef4fb" stroke="#333" stroke-width="1.3" rx="4"/>
<text x="885.0" y="50" font-size="11.5" text-anchor="middle">Generation-2 saturation snowball</text>
<text x="885.0" y="69" font-size="11.5" text-anchor="middle">541 seeds, complete</text>
<text x="885.0" y="88" font-size="11.5" text-anchor="middle" font-weight="bold">n = 33,623</text>
<line x1="185.0" y1="104" x2="535.0" y2="144" stroke="#333" stroke-width="1.3" marker-end="url(#arrow)"/>
<line x1="535.0" y1="104" x2="535.0" y2="144" stroke="#333" stroke-width="1.5" marker-end="url(#arrow)"/>
<line x1="885.0" y1="104" x2="535.0" y2="144" stroke="#333" stroke-width="1.3" marker-end="url(#arrow)"/>
<rect x="370" y="154" width="330" height="52" fill="#fbeeee" stroke="#333" stroke-width="1.3" rx="4"/>
<text x="535.0" y="175" font-size="11.5" text-anchor="middle">Duplicate records removed (within and across streams)</text>
<text x="535.0" y="193" font-size="11.5" text-anchor="middle" font-weight="bold">n = 28,843</text>
<line x1="535.0" y1="206" x2="535.0" y2="252" stroke="#333" stroke-width="1.5" marker-end="url(#arrow)"/>
<rect x="370" y="252" width="330" height="52" fill="#eef4fb" stroke="#333" stroke-width="1.3" rx="4"/>
<text x="535.0" y="273" font-size="11.5" text-anchor="middle">Unique records identified</text>
<text x="535.0" y="291" font-size="11.5" text-anchor="middle" font-weight="bold">n = 22,167</text>
<line x1="700" y1="278.0" x2="720" y2="278.0" stroke="#333" stroke-width="1.3" marker-end="url(#arrow)"/><line x1="720" y1="278.0" x2="720" y2="424.0" stroke="#333" stroke-width="1.3"/>
<rect x="720" y="394" width="330" height="60" fill="#fbeeee" stroke="#333" stroke-width="1.3" rx="4"/>
<text x="885.0" y="413" font-size="11.5" text-anchor="middle">Excluded: no abstract available</text>
<text x="885.0" y="428" font-size="11.5" text-anchor="middle">for screening</text>
<text x="885.0" y="443" font-size="11.5" text-anchor="middle" font-weight="bold">n = 4,762</text>
<line x1="535.0" y1="304" x2="535.0" y2="404" stroke="#333" stroke-width="1.5" marker-end="url(#arrow)"/>
<rect x="370" y="404" width="330" height="52" fill="#eef4fb" stroke="#333" stroke-width="1.3" rx="4"/>
<text x="535.0" y="425" font-size="11.5" text-anchor="middle">Records screened (title + abstract)</text>
<text x="535.0" y="443" font-size="11.5" text-anchor="middle" font-weight="bold">n = 17,405</text>
<line x1="700" y1="430.0" x2="720" y2="430.0" stroke="#333" stroke-width="1.3" marker-end="url(#arrow)"/><line x1="720" y1="430.0" x2="720" y2="579.0" stroke="#333" stroke-width="1.3"/>
<rect x="720" y="546" width="330" height="66" fill="#fbeeee" stroke="#333" stroke-width="1.3" rx="4"/>
<text x="885.0" y="563" font-size="11.5" text-anchor="middle">Excluded: not substantively about</text>
<text x="885.0" y="576" font-size="11.5" text-anchor="middle">social media bots (false-positive</text>
<text x="885.0" y="590" font-size="11.5" text-anchor="middle">keyword matches)</text>
<text x="885.0" y="603" font-size="11.5" text-anchor="middle" font-weight="bold">n = 12,745</text>
<line x1="535.0" y1="456" x2="535.0" y2="556" stroke="#333" stroke-width="1.5" marker-end="url(#arrow)"/>
<rect x="370" y="556" width="330" height="60" fill="#e9f7ee" stroke="#1f7a4d" stroke-width="1.3" rx="4"/>
<text x="535.0" y="575" font-size="11.5" text-anchor="middle">Included in final analysis</text>
<text x="535.0" y="590" font-size="11.5" text-anchor="middle">(bot-type and governance annotation)</text>
<text x="535.0" y="605" font-size="11.5" text-anchor="middle" font-weight="bold">n = 4,660</text>
<text x="20" y="640" font-size="9.5" fill="#666">Source: OpenAlex API (single database) + Semantic Scholar (generation-2 forward-citation discovery). Not a full multi-database systematic search.</text>
<text x="20" y="654" font-size="9.5" fill="#666">Keyword-search stream screened by LLM judgment; snowball streams screened by a deterministic keyword-rule classifier. Run (UTC): 2026-09-27T13:38:48Z</text>
</svg>